REM MD5 06a43eda40eb14f0b8a367e33d9c3f6f
FILE "Next King - Koi no Sennen Oukoku (Japan) (Genteiban).bin" BINARY
  TRACK 01 MODE2/2352
    INDEX 01 00:00:00
  TRACK 02 AUDIO
    INDEX 00 51:21:66
    INDEX 01 51:23:66
  TRACK 03 AUDIO
    INDEX 00 54:40:07
    INDEX 01 54:42:07
REM LEADOUT 57:58:23
